inDegrees=yes
name=ik_Xsens_quaternion
DataType=double
version=3
OpenSimVersion=4.4-2022-07-23-0e9fedc
endheader
time	pelvis_tilt	pelvis_list	pelvis_rotation	pelvis_tx	pelvis_ty	pelvis_tz	hip_flexion_r	hip_adduction_r	hip_rotation_r	knee_angle_r	knee_angle_r_beta	ankle_angle_r	subtalar_angle_r	mtp_angle_r	hip_flexion_l	hip_adduction_l	hip_rotation_l	knee_angle_l	knee_angle_l_beta	ankle_angle_l	subtalar_angle_l	mtp_angle_l	lumbar_extension	lumbar_bending	lumbar_rotation	arm_flex_r	arm_add_r	arm_rot_r	elbow_flex_r	pro_sup_r	wrist_flex_r	wrist_dev_r	arm_flex_l	arm_add_l	arm_rot_l	elbow_flex_l	pro_sup_l	wrist_flex_l	wrist_dev_l
0	-6.436494999256021e-13	-2.042772441772625e-12	-6.056669165131018e-12	-1.066979775071342e-22	0.93	-1.915059633386041e-20	1.017926811468122e-28	8.152679279454063e-17	5.630141396860458e-33	0	-1.86894324692527e-11	3.581134643871169e-18	-5.951518143890294e-27	4.400950862746025e-22	1.202042235668359e-20	-6.774118549817848e-28	-1.508542915536273e-20	0	-1.86894318895589e-11	3.73281470300193e-19	-9.375934178537247e-26	1.294482969126442e-20	-6.436494999234825e-13	-2.042772434735533e-12	-6.056669165129156e-12	5.970612658396596e-24	-7.796503990360636e-19	1.767150315040298e-18	0	0	1.652753618092988e-21	-5.010513565598759e-22	89.76581127556	0.1781321775275382	-71.94423035939626	0.4160152695585762	28.62792030682413	1.474342738084917e-21	-1.591181644630424e-22
0.01666666666666667	2.763014793360713e-24	-2.890100124973862e-18	9.620101155499706e-25	1.76789308997015e-19	0.93	3.135842340345446e-18	4.715280351775306e-31	-3.457570791340945e-16	-2.989823669321908e-39	0	-2.956363618577789e-17	-3.420504871067577e-14	-2.643074107965472e-17	-1.088656808637198e-14	3.890242518616554e-14	-3.138323750063676e-30	-3.927398625306164e-14	0	-2.956387943253478e-17	-2.633372825033778e-15	6.116400418764591e-19	6.494821859971533e-14	-1.240533024841669e-24	-6.37247913390554e-14	-9.487160715477792e-24	-1.343009405634078e-21	1.238618893753145e-13	1.564073700865061e-13	0	0	1.301048949508923e-14	9.02935069402729e-15	89.72530715498337	0.2056760267583641	-71.95111899814262	0.3746118115943979	28.70737711318767	1.232438206979046e-13	-7.251258299424007e-15
0.03333333333333333	0	0	0	0	0.93	0	-4.499670307307866e-47	-4.787301493469123e-36	0	0	0	0	0	0	-1.173397332868361e-35	0	0	0	0	0	0	0	0	0	0	0	0	0	0	0	0	-2.357280280025567e-36	89.71807959056598	0.2156899794403717	-72.01934669155003	0.3797212202325833	28.78797439294335	0	9.1134139397417e-36
0.05	0	0	0	0	0.93	0	0	0	0	0	0	0	0	0	0	0	0	0	0	0	0	0	0	0	0	0	0	0	0	0	0	0	89.73751997008065	0.2173662981149695	-72.07387832259823	0.4467647521094266	28.8720154110201	0	0
0.06666666666666667	0	0	0	0	0.93	0	0	0	0	0	0	0	0	0	0	0	0	0	0	0	0	0	0	0	0	0	0	0	0	0	0	0	89.75924593468339	0.1777007140888572	-72.1145573651208	0.5033614560432612	28.98939992707833	0	0
0.08333333333333333	0	0	0	0	0.93	0	0	0	0	8.766529846266203e-39	0	0	0	0	0	0	0	8.766529846266203e-39	0	0	0	0	0	0	0	0	0	0	5.090567610712817e-39	0	0	0	89.77946758785599	0.1170019632784501	-72.1340984464367	0.5535567041796912	29.10826042167663	0	0
0.1	0	0	0	0	0.93	0	0	0	0	0	0	0	0	0	0	0	0	0	0	0	0	0	0	0	0	0	0	0	0	0	0	0	89.80037737842098	0.03350325743647922	-72.132274092693	0.5743955164376328	29.22665756338097	0	0
0.1166666666666667	0	0	0	0	0.93	0	0	0	0	0	0	0	0	0	0	0	0	0	0	0	0	0	0	0	0	0	0	0	0	0	0	0	89.82075888777734	-0.05088536902303759	-72.10781191259325	0.6002256011494764	29.34554512707441	0	0
0.1333333333333333	0	0	0	0	0.93	0	0	0	0	6.206017184252074e-40	4.591774807899561e-41	0	0	0	0	0	0	6.206017184252074e-40	4.591774807899561e-41	0	0	0	0	0	0	0	0	0	3.246947460261762e-40	0	0	0	89.8427635607639	-0.1340123431619213	-72.06909457118714	0.631359018873344	29.46402620314565	0	0
0.15	1.327382646177578e-26	4.241253428986984e-23	-2.612444136626358e-26	1.367150515191194e-24	0.93	-2.003510024044739e-24	1.670394964351225e-37	3.424371448857975e-23	-7.885221221536858e-39	1.8430937977433e-07	3.216806427908624e-09	-1.005841086567944e-13	3.726437256698219e-16	1.171354221910283e-22	3.856981670998916e-28	8.45973292128024e-26	1.302601269970486e-15	1.843093803092808e-07	3.216807256442675e-09	-2.305988347518307e-13	-3.411700141226143e-16	-1.220425560122004e-23	-8.272362004767838e-16	1.803908644571971e-14	-1.013404741399816e-14	1.799999153066709e-13	-1.795098653784868e-13	1.380517236993482e-13	1.843085694503365e-07	1.842925958781506e-07	6.650212416913912e-23	1.832946344445981e-23	89.85983179108199	-0.2180933834621893	-72.03937916071426	0.6564311367037032	29.5809690857012	4.017715487544776e-24	7.608552284564501e-23
0.1666666666666667	0	0	0	1.270999781781732e-57	0.93	0	0	0	0	0	3.191624751697238e-41	0	0	0	0	0	0	2.072222619738293e-38	-4.520926074745068e-41	0	0	0	0	0	0	0	0	0	0	0	0	0	89.87046647095343	-0.2979497518119075	-72.00625316347811	0.6831407240588755	29.69754443124459	0	0
0.1833333333333333	0	0	2.41385500674618e-33	0	0.93	0	0	0	0	0	-2.152394441202919e-42	0	0	0	0	0	0	0	-2.152394441202919e-42	0	0	0	0	0	2.41385500674618e-33	0	0	0	0	2.104714535737113e-38	0	0	89.8788449876801	-0.384421729557117	-71.98459704281446	0.6942695262792882	29.81204020387175	0	0
0.2	1.917197139932084e-29	-2.110926433022086e-16	5.306950935004396e-30	-1.799274971894759e-16	0.93	-1.369850084462197e-16	-3.823014420651482e-32	7.590836171969627e-16	0	5.607116160979269e-07	9.786263855569521e-09	7.973335784821499e-15	-4.297240720416025e-13	6.616445902626757e-15	-4.92056483727184e-16	1.104509827447463e-30	-1.089300155617591e-16	5.607117812926685e-07	9.786266738761667e-09	3.044870089370697e-14	-7.122444516086199e-14	-1.677489719827617e-17	5.387470630673046e-30	-1.844395117797026e-19	0	8.293942649008564e-23	4.479266379075875e-16	-8.366785401284757e-16	5.607108077276391e-07	5.607046150735542e-07	-2.903836933171036e-16	-9.448957054691802e-16	89.88491669496787	-0.4751365604360887	-71.98948174409419	0.6920402015288216	29.92406531942892	1.391578110220689e-15	-3.598791933251039e-16
0.2166666666666667	-2.954177322360612e-33	0	-2.846668503875161e-33	0	0.93	0	-5.517640700093326e-36	2.789733344790302e-36	0	0	0	0	0	0	-2.015264167968286e-36	0	0	0	0	0	0	0	0	0	0	0	0	0	0	0	0	6.735086514358763e-36	89.88829003926827	-0.5577834429804578	-72.02039731598688	0.6944010515459883	30.03511593821938	0	1.010262977153814e-36
0.2333333333333333	0	3.230734194951765e-34	3.562566106060782e-33	0	0.93	0	1.783633929184779e-41	-3.661773267041685e-38	0	0	0	0	0	0	-2.155227684594804e-35	2.694034605743505e-36	0	0	0	0	0	0	0	-3.448364295351686e-34	1.724182147675843e-33	0	0	0	0	0	0	0	89.8928242684283	-0.6261111359078175	-72.03160507547972	0.7180819087503419	30.14725615807974	0	-2.569231611007218e-42
0.25	0	0	-4.014424392198779e-44	0	0.93	0	-2.195012779256099e-40	5.708754665621905e-37	0	0	0	0	0	0	-2.025941894543632e-37	-8.236499221662382e-36	0	0	0	0	0	0	0	0	0	0	0	0	0	0	0	0	89.89913401480888	-0.6885090255400496	-72.01365532195491	0.7449488727764471	30.26010098070023	0	0
0.2666666666666667	5.652913282702516e-26	-3.952856784782844e-26	3.305643350351199e-26	-1.646068993233907e-26	0.93	-1.631068051715916e-27	2.072184471685922e-15	-1.531020345744943e-15	2.009775995218094e-15	4.352094822998079e-17	4.697147714172411e-17	-3.460077420732803e-15	1.010114798733394e-14	5.825290055143743e-21	1.268686691336515e-13	3.436763135258016e-14	4.612734509585658e-14	3.144463223270855e-15	-3.761854845628736e-16	-5.447298767330672e-15	-3.557663688206235e-15	-4.550608535513173e-25	2.813595113356922e-14	9.295280790096641e-15	1.234207199995286e-14	4.920362446067885e-15	-4.198685576440871e-15	-9.240891824929324e-15	3.145103805974168e-15	3.145052989993094e-15	-9.000836557264334e-24	-3.036698749159374e-21	89.90003118681838	-0.7608637129061487	-72.02731870444956	0.7510464736360557	30.3698226517736	1.753100146588105e-23	-1.024105314908074e-21
0.2833333333333333	1.121937500267628e-26	1.256632053908075e-26	3.554732571111157e-17	-6.984002666695462e-19	0.93	6.892558520111034e-20	-5.150413569715937e-29	-1.151542918780492e-16	-1.593225145183912e-31	7.567655188240494e-13	1.320804996921493e-14	-1.389049951177049e-14	9.506227228563841e-22	-5.348675256904083e-18	3.122946977332433e-19	-8.965747167914385e-33	2.202152689445045e-20	1.429239049258136e-13	2.494493125177105e-15	-9.865873090238059e-15	-8.574023508922e-23	1.223764791905589e-18	2.104956602289736e-26	4.907840068427164e-26	-7.917827549194143e-25	1.638667087685375e-21	7.521053205295566e-19	1.919592346214152e-17	1.429543186087862e-13	1.429542958533514e-13	6.387518914102323e-18	5.020067160581825e-18	89.90035898951838	-0.8364208098454506	-72.08833154078673	0.7470697222390641	30.47632423567591	2.244329555033667e-18	-3.635309950769755e-18
0.3	0	0	0	0	0.93	0	0	0	0	0	0	0	0	0	0	0	0	0	0	0	0	0	0	0	0	0	0	0	0	0	0	0	89.90045324109556	-0.9096813934858252	-72.17205124871816	0.7453718724695266	30.58226805007455	0	0
0.3166666666666667	-1.926095871079717e-23	-2.908717616316804e-13	-4.465929322801022e-23	3.244196268024715e-15	0.93	3.283274888153139e-17	8.128901138037196e-28	-3.89043009327221e-16	0	0	-7.54968970311971e-17	4.719665445133844e-14	-1.20128032241313e-17	-3.926113750706768e-16	6.988465020019634e-16	-1.828352288946109e-26	7.441992460802823e-14	0	-7.549911986965031e-17	-7.377619592464776e-16	4.780392024612506e-17	7.20785161648337e-17	-1.926095871079717e-23	-4.257420882032148e-13	-3.080577822090363e-25	5.38814004694993e-20	-7.801692339711311e-13	-4.59064268208361e-13	0	0	2.45399257794808e-14	-4.389388172181681e-13	89.90177782363534	-0.9779573063246892	-72.22602144005879	0.7553108447134242	30.68807718850304	-4.389018967413524e-13	2.307109935181882e-13
0.3333333333333333	-2.454205169196681e-30	8.036640244161022e-14	1.035149793583477e-28	3.52089407224437e-15	0.93	-9.139903803491299e-16	3.652311582883143e-31	-3.398820383030388e-14	5.039621131549248e-37	2.254492023033195e-07	3.934830876255067e-09	-2.737347639575363e-19	2.360845158839375e-23	1.445954601796362e-17	-6.791684999277929e-32	2.044351377816247e-17	-3.341806612125141e-19	2.254437698217967e-07	3.934736061565939e-09	2.288728619483561e-19	-4.90857679729444e-23	1.906359303083769e-14	5.580219257426829e-29	-1.599248706053617e-21	2.564397534705816e-28	3.271060494069395e-23	-3.545391491656482e-15	8.263663863720366e-17	2.254437664452149e-07	2.254437674030066e-07	3.194584564015183e-14	-6.059585589806158e-15	89.90639376260309	-1.037921808973321	-72.27117532197001	0.7710269506254345	30.79426249642216	1.12516785577705e-14	2.859834466289324e-14
0.35	0	0	0	0	0.93	0	3.779616702008775e-37	-2.694034605743505e-36	0	0	0	0	0	0	0	-2.036246921958406e-36	0	0	0	0	0	0	0	-6.896728590703373e-34	0	0	0	0	0	0	0	0	89.91150918733588	-1.087934328122033	-72.27024992155019	0.7936678910895281	30.90215824088617	0	0
